# Blender v2.93.3 OBJ File: 'border.blend'
# www.blender.org
o Cube_Cube.001
v -0.500000 -0.250000 7.500000
v -0.500000 0.050000 7.500000
v -0.500000 -0.250000 -0.500000
v -0.500000 0.050000 -0.500000
v 7.500000 -0.250000 7.500000
v 7.500000 0.050000 7.500000
v 7.500000 -0.250000 -0.500000
v 7.500000 0.050000 -0.500000
v -1.065145 -0.271193 -1.065145
v -1.065145 -0.271193 8.065145
v -1.065145 0.071193 8.065145
v -1.065145 0.071193 -1.065145
v 8.065145 -0.271193 -1.065145
v 8.065145 0.071193 -1.065145
v 8.065145 -0.271193 8.065145
v 8.065145 0.071193 8.065145
vt 0.114093 0.333628
vt 0.583144 0.302657
vt 0.552194 0.333628
vt 0.216797 0.030949
vt 0.247768 0.499999
vt 0.216797 0.469050
vt 0.030971 0.030949
vt 0.061942 0.499999
vt 0.030971 0.469050
vt 0.000000 0.030949
vt 0.030971 0.499999
vt 0.000000 0.469050
vt 0.000000 0.586786
vt 0.438103 0.603215
vt 0.000000 0.603215
vt 0.000000 0.537499
vt 0.438103 0.553928
vt 0.000000 0.553928
vt 0.500001 0.537499
vt 0.000000 0.518749
vt 0.500001 0.518749
vt 0.500001 0.518749
vt 0.000000 0.499999
vt 0.500001 0.499999
vt 0.500001 1.000000
vt 0.518751 0.499999
vt 0.518751 1.000000
vt 0.518751 1.000000
vt 0.537501 0.499999
vt 0.537501 1.000000
vt 0.092913 0.030949
vt 0.123884 0.499999
vt 0.092913 0.469050
vt 0.123884 0.030949
vt 0.154855 0.499999
vt 0.123884 0.469050
vt 0.114093 0.209744
vt 0.583144 0.178773
vt 0.552194 0.209744
vt 0.154855 0.030949
vt 0.185826 0.499999
vt 0.154855 0.469050
vt 0.438103 0.586786
vt 0.000000 0.570357
vt 0.438103 0.570357
vt 0.438103 0.570357
vt 0.000000 0.553928
vt 0.438103 0.553928
vt 0.083145 0.302657
vt 0.247768 0.000000
vt 0.061942 0.000000
vt 0.030971 0.000000
vt 0.438103 0.586786
vt 0.438103 0.537499
vt 0.000000 0.537499
vt 0.000000 0.518749
vt 0.500001 0.499999
vt 0.518751 0.499999
vt 0.123884 0.000000
vt 0.154855 0.000000
vt 0.083145 0.178773
vt 0.185826 0.000000
vt 0.000000 0.586786
vt 0.000000 0.570357
vn 0.0000 0.9993 -0.0375
vn 0.0375 0.9993 0.0000
vn 0.0000 -0.9993 0.0375
vn -0.0375 0.9993 0.0000
vn 0.0000 0.0000 1.0000
vn 1.0000 0.0000 0.0000
vn -1.0000 0.0000 0.0000
vn 0.0000 0.0000 -1.0000
vn 0.0375 -0.9993 0.0000
vn -0.0375 -0.9993 0.0000
vn 0.0000 0.9993 0.0375
vn 0.0000 -0.9993 -0.0375
s off
f 2/1/1 16/2/1 6/3/1
f 4/4/2 11/5/2 2/6/2
f 3/7/3 13/8/3 7/9/3
f 6/10/4 14/11/4 8/12/4
f 8/13/5 3/14/5 7/15/5
f 4/16/6 1/17/6 3/18/6
f 11/19/7 9/20/7 10/21/7
f 12/22/8 13/23/8 9/24/8
f 14/25/6 15/26/6 13/27/6
f 16/28/5 10/29/5 15/30/5
f 1/31/9 9/32/9 3/33/9
f 7/34/10 15/35/10 5/36/10
f 8/37/11 12/38/11 4/39/11
f 5/40/12 10/41/12 1/42/12
f 2/43/8 5/44/8 1/45/8
f 6/46/7 7/47/7 5/48/7
f 2/1/1 11/49/1 16/2/1
f 4/4/2 12/50/2 11/5/2
f 3/7/3 9/51/3 13/8/3
f 6/10/4 16/52/4 14/11/4
f 8/13/5 4/53/5 3/14/5
f 4/16/6 2/54/6 1/17/6
f 11/19/7 12/55/7 9/20/7
f 12/22/8 14/56/8 13/23/8
f 14/25/6 16/57/6 15/26/6
f 16/28/5 11/58/5 10/29/5
f 1/31/9 10/59/9 9/32/9
f 7/34/10 13/60/10 15/35/10
f 8/37/11 14/61/11 12/38/11
f 5/40/12 15/62/12 10/41/12
f 2/43/8 6/63/8 5/44/8
f 6/46/7 8/64/7 7/47/7
