# Blender v2.93.3 OBJ File: 'border.blend'
# www.blender.org
o Cube
v 0.505569 -0.085834 -0.504850
v 0.506287 -0.084959 -0.506287
v 0.504850 -0.085834 -0.505569
v 0.505779 -0.085224 -0.505569
v 0.505569 -0.085338 -0.505569
v 0.505569 -0.085224 -0.505779
v 0.505358 -0.085834 -0.505359
v 0.504850 -0.114165 -0.505569
v 0.506287 -0.115041 -0.506287
v 0.505569 -0.114165 -0.504850
v 0.505569 -0.114776 -0.505779
v 0.505569 -0.114662 -0.505569
v 0.505779 -0.114776 -0.505569
v 0.505358 -0.114165 -0.505359
v 0.504850 -0.085834 0.505569
v 0.506287 -0.084959 0.506287
v 0.505569 -0.085834 0.504850
v 0.505569 -0.085224 0.505779
v 0.505569 -0.085338 0.505569
v 0.505779 -0.085224 0.505569
v 0.505358 -0.085834 0.505359
v 0.504850 -0.114165 0.505569
v 0.505569 -0.114165 0.504850
v 0.506287 -0.115041 0.506287
v 0.505358 -0.114165 0.505359
v 0.505569 -0.114662 0.505569
v 0.505779 -0.114776 0.505569
v 0.505569 -0.114776 0.505779
v -0.505569 -0.085834 -0.504850
v -0.504850 -0.085834 -0.505569
v -0.506287 -0.084959 -0.506287
v -0.505359 -0.085834 -0.505359
v -0.505569 -0.085338 -0.505569
v -0.505569 -0.085224 -0.505779
v -0.505779 -0.085224 -0.505569
v -0.505569 -0.114165 -0.504850
v -0.506287 -0.115041 -0.506287
v -0.504850 -0.114165 -0.505569
v -0.505779 -0.114776 -0.505569
v -0.505569 -0.114662 -0.505569
v -0.505569 -0.114776 -0.505779
v -0.505359 -0.114165 -0.505359
v -0.504850 -0.085834 0.505569
v -0.505569 -0.085834 0.504850
v -0.506287 -0.084959 0.506287
v -0.505359 -0.085834 0.505359
v -0.505569 -0.085338 0.505569
v -0.505779 -0.085224 0.505569
v -0.505569 -0.085224 0.505779
v -0.505569 -0.114165 0.504850
v -0.504850 -0.114165 0.505569
v -0.506287 -0.115041 0.506287
v -0.505359 -0.114165 0.505359
v -0.505569 -0.114662 0.505569
v -0.505569 -0.114776 0.505779
v -0.505779 -0.114776 0.505569
v -0.564355 -0.115912 -0.563636
v -0.563636 -0.115912 -0.564355
v -0.563636 -0.116744 -0.563636
v -0.564144 -0.115916 -0.564144
v -0.564051 -0.116400 -0.564051
v -0.563636 -0.116505 -0.564144
v -0.564144 -0.116505 -0.563636
v -0.563636 -0.116744 0.563636
v -0.563636 -0.115912 0.564355
v -0.564355 -0.115912 0.563636
v -0.563636 -0.116509 0.564144
v -0.564051 -0.116401 0.564051
v -0.564144 -0.115912 0.564144
v -0.564144 -0.116509 0.563636
v 0.563636 -0.115912 -0.564355
v 0.564355 -0.115912 -0.563636
v 0.563636 -0.116744 -0.563636
v 0.564144 -0.115916 -0.564144
v 0.564051 -0.116400 -0.564051
v 0.564144 -0.116505 -0.563636
v 0.563636 -0.116505 -0.564144
v 0.563636 -0.084088 -0.564355
v 0.563636 -0.083255 -0.563636
v 0.564355 -0.084088 -0.563636
v 0.563636 -0.083495 -0.564144
v 0.564051 -0.083600 -0.564051
v 0.564144 -0.083495 -0.563636
v 0.564144 -0.084084 -0.564144
v -0.564355 -0.084088 0.563636
v -0.563636 -0.084088 0.564355
v -0.563636 -0.083255 0.563636
v -0.564144 -0.084084 0.564144
v -0.564051 -0.083600 0.564051
v -0.563636 -0.083495 0.564144
v -0.564144 -0.083495 0.563636
v 0.564355 -0.084088 0.563636
v 0.563636 -0.083255 0.563636
v 0.563636 -0.084088 0.564355
v 0.564144 -0.083495 0.563636
v 0.564051 -0.083600 0.564051
v 0.563636 -0.083495 0.564144
v 0.564144 -0.084084 0.564144
v 0.564355 -0.115912 0.563636
v 0.563636 -0.115912 0.564355
v 0.563636 -0.116744 0.563636
v 0.564144 -0.115916 0.564144
v 0.564051 -0.116400 0.564051
v 0.563636 -0.116505 0.564144
v 0.564144 -0.116505 0.563636
v -0.563636 -0.084088 -0.564355
v -0.564355 -0.084088 -0.563636
v -0.563636 -0.083255 -0.563636
v -0.564144 -0.084084 -0.564144
v -0.564051 -0.083600 -0.564051
v -0.564144 -0.083495 -0.563636
v -0.563636 -0.083495 -0.564144
vt 0.625000 0.500000
vt 0.875000 0.500000
vt 0.875000 0.500000
vt 0.375000 0.750000
vt 0.125000 0.750000
vt 0.125000 0.750000
vt 0.875000 0.750000
vt 0.875000 0.750000
vt 0.625000 0.750000
vt 0.625000 0.750000
vt 0.125000 0.500000
vt 0.375000 0.500000
vt 0.375000 0.500000
vt 0.375000 0.750000
vt 0.618633 0.500159
vt 0.381367 0.749841
vt 0.381367 0.500159
vt 0.618633 0.250159
vt 0.381367 0.499841
vt 0.381367 0.250159
vt 0.618633 0.750159
vt 0.381367 0.999841
vt 0.381367 0.750159
vt 0.382035 0.750000
vt 0.853606 0.750000
vt 0.617965 0.750000
vt 0.618633 0.000159
vt 0.381367 0.249841
vt 0.381367 0.000159
vt 0.853678 0.500178
vt 0.146322 0.749822
vt 0.146322 0.500178
vt 0.617965 0.500000
vt 0.146394 0.500000
vt 0.382035 0.500000
vt 0.382107 0.500178
vt 0.617893 0.749822
vt 0.617893 0.500178
vt 0.125000 0.500000
vt 0.624009 0.500000
vt 0.617893 0.500000
vt 0.625000 0.500000
vt 0.625000 0.500000
vt 0.375991 0.500000
vt 0.382107 0.500000
vt 0.375000 0.500000
vt 0.375000 0.500000
vt 0.624009 0.750000
vt 0.617893 0.750000
vt 0.625000 0.750000
vt 0.625000 0.750000
vt 0.375991 0.750000
vt 0.375000 0.750000
vt 0.382107 0.749822
vt 0.382107 0.750000
vt 0.375000 0.750000
vt 0.872026 0.500000
vt 0.875000 0.500000
vt 0.853606 0.500000
vt 0.853678 0.500000
vt 0.875000 0.500000
vt 0.127974 0.500000
vt 0.146322 0.500000
vt 0.125000 0.500000
vt 0.125000 0.500000
vt 0.872026 0.750000
vt 0.875000 0.750000
vt 0.853678 0.749822
vt 0.853678 0.750000
vt 0.875000 0.750000
vt 0.127974 0.750000
vt 0.125000 0.750000
vt 0.146394 0.750000
vt 0.146322 0.750000
vt 0.125000 0.750000
vt 0.377725 0.250000
vt 0.375000 0.249841
vt 0.375000 0.250067
vt 0.381334 0.250000
vt 0.125000 0.500067
vt 0.125000 0.499836
vt 0.125067 0.750000
vt 0.124836 0.750000
vt 0.377718 1.000000
vt 0.375000 0.999841
vt 0.375000 0.000067
vt 0.381367 0.000000
vt 0.375886 0.500022
vt 0.375000 0.499841
vt 0.381334 0.500000
vt 0.375164 0.500000
vt 0.618633 0.499841
vt 0.624092 0.500000
vt 0.618666 0.500000
vt 0.625000 0.500000
vt 0.625000 0.499836
vt 0.625000 0.500159
vt 0.622275 0.000000
vt 0.625000 0.000159
vt 0.618633 0.999841
vt 0.625000 0.999933
vt 0.618666 1.000000
vt 0.875000 0.749933
vt 0.875000 0.750164
vt 0.618633 0.749841
vt 0.624114 0.749978
vt 0.618666 0.750000
vt 0.624836 0.750000
vt 0.625000 0.750159
vt 0.375908 0.750000
vt 0.375000 0.749841
vt 0.381334 0.750000
vt 0.375000 0.750164
vt 0.622275 0.250000
vt 0.625000 0.250159
vt 0.618633 0.249841
vt 0.625000 0.249933
vt 0.618666 0.250000
vt 0.874933 0.500000
vt 0.875164 0.500000
vt 0.125000 0.500159
vt 0.375000 0.000159
vt 0.374841 0.500000
vt 0.375000 0.250159
vt 0.381367 1.000000
vt 0.625159 0.750000
vt 0.625000 0.999841
vt 0.625000 0.749841
vt 0.125159 0.750000
vt 0.875000 0.749841
vt 0.625000 0.249841
vt 0.874841 0.500000
vt 0.375000 0.500159
vt 0.618666 0.000000
vt 0.125000 0.749841
vt 0.125159 0.500000
vt 0.874841 0.750000
vt 0.374841 0.750000
vt 0.875000 0.500159
vt 0.625159 0.500000
vn -0.0718 0.9948 0.0718
vn -0.1958 0.9609 -0.1958
vn 0.0718 0.9948 0.0718
vn -0.0718 -0.9948 -0.0718
vn -0.1939 -0.9617 0.1939
vn 0.0718 -0.9948 -0.0718
vn -0.1958 0.9609 0.1958
vn 0.0718 0.9948 -0.0718
vn 0.1958 0.9609 0.1958
vn -0.0718 0.9948 -0.0718
vn 0.0718 -0.9948 0.0718
vn 0.1958 -0.9609 -0.1958
vn -0.0718 -0.9948 0.0718
vn 0.1958 -0.9609 0.1958
vn 0.9713 0.1549 -0.1806
vn 0.9713 -0.1549 0.1806
vn 0.9713 -0.1549 -0.1806
vn -0.1806 0.1549 -0.9713
vn 0.1805 -0.1549 -0.9713
vn -0.1805 -0.1549 -0.9713
vn 0.1806 0.1549 0.9713
vn -0.1811 -0.1541 0.9713
vn 0.1805 -0.1549 0.9713
vn -0.1557 -0.2116 -0.9648
vn 0.1557 0.2116 -0.9648
vn -0.1556 0.2116 -0.9649
vn -0.9713 0.1549 0.1806
vn -0.9713 -0.1549 -0.1806
vn -0.9713 -0.1542 0.1810
vn 0.9648 0.2116 0.1556
vn 0.9649 -0.2116 -0.1556
vn 0.9648 -0.2116 0.1556
vn -0.1557 0.2116 0.9648
vn 0.1557 -0.2116 0.9648
vn -0.1556 -0.2116 0.9649
vn -0.9648 -0.2117 0.1556
vn -0.9648 0.2117 -0.1556
vn -0.9649 0.2116 0.1556
vn -0.1958 -0.9609 -0.1958
vn -0.4895 0.7217 0.4894
vn -0.6778 0.2849 0.6777
vn -0.1987 0.8564 0.4765
vn -0.4765 0.8564 0.1987
vn -0.4895 -0.7216 0.4895
vn -0.6778 -0.2850 0.6778
vn -0.4765 -0.8564 0.1987
vn -0.1987 -0.8564 0.4765
vn -0.4895 0.7216 -0.4895
vn -0.6778 0.2849 -0.6778
vn -0.4765 0.8564 -0.1987
vn -0.1987 0.8564 -0.4765
vn -0.4895 -0.7216 -0.4895
vn -0.1987 -0.8564 -0.4765
vn -0.9649 -0.2116 -0.1556
vn -0.6778 -0.2850 -0.6777
vn -0.4766 -0.8563 -0.1987
vn 0.4895 0.7216 0.4895
vn 0.4765 0.8564 0.1987
vn 0.1556 0.2116 0.9649
vn 0.6778 0.2851 0.6777
vn 0.1987 0.8564 0.4765
vn 0.4896 -0.7216 0.4894
vn 0.6778 -0.2851 0.6777
vn 0.1987 -0.8564 0.4764
vn 0.4766 -0.8563 0.1987
vn 0.4895 0.7216 -0.4895
vn 0.1988 0.8564 -0.4765
vn 0.9648 0.2116 -0.1556
vn 0.6778 0.2850 -0.6777
vn 0.4766 0.8563 -0.1987
vn 0.4895 -0.7216 -0.4895
vn 0.4766 -0.8563 -0.1987
vn 0.1556 -0.2116 -0.9649
vn 0.6777 -0.2851 -0.6778
vn 0.1987 -0.8564 -0.4765
vn -0.5960 -0.5380 -0.5960
vn -0.7301 -0.6654 -0.1556
vn -0.7011 -0.1291 -0.7012
vn -0.1555 -0.6654 -0.7301
vn -0.5969 -0.5360 0.5970
vn -0.7278 -0.6674 0.1578
vn -0.1578 -0.6673 0.7278
vn -0.7014 -0.1272 0.7013
vn 0.5960 -0.5380 -0.5960
vn 0.1555 -0.6654 -0.7301
vn 0.7011 -0.1291 -0.7012
vn 0.7301 -0.6653 -0.1556
vn 0.1806 0.1549 -0.9713
vn 0.5960 0.5380 -0.5960
vn 0.7012 0.1291 -0.7012
vn 0.1958 0.9609 -0.1958
vn 0.1555 0.6654 -0.7301
vn 0.7301 0.6654 -0.1556
vn -0.5960 0.5380 0.5960
vn -0.7301 0.6654 0.1556
vn -0.1806 0.1549 0.9713
vn -0.7012 0.1291 0.7012
vn -0.1555 0.6654 0.7301
vn 0.9713 0.1549 0.1806
vn 0.5960 0.5380 0.5960
vn 0.7012 0.1291 0.7012
vn 0.7301 0.6653 0.1556
vn 0.1555 0.6654 0.7301
vn 0.5960 -0.5380 0.5960
vn 0.7301 -0.6654 0.1556
vn 0.7011 -0.1291 0.7012
vn 0.1555 -0.6654 0.7301
vn -0.5960 0.5380 -0.5960
vn -0.1555 0.6654 -0.7301
vn -0.9713 0.1549 -0.1806
vn -0.7012 0.1291 -0.7012
vn -0.7301 0.6653 -0.1556
s 1
f 2/1/1 108/2/2 31/3/3
f 24/4/4 64/5/5 52/6/6
f 31/3/3 87/7/7 45/8/8
f 45/8/8 93/9/9 16/10/10
f 37/11/11 73/12/12 9/13/13
f 9/13/13 101/14/14 24/4/4
f 80/15/15 99/16/16 72/17/17
f 106/18/18 71/19/19 58/20/20
f 94/21/21 65/22/22 100/23/23
f 22/24/24 43/25/25 15/26/26
f 85/27/27 57/28/28 66/29/29
f 29/30/30 50/31/31 36/32/32
f 3/33/33 38/34/34 8/35/35
f 10/36/36 17/37/37 1/38/38
f 52/6/6 59/39/39 37/11/11
f 1/38/38 5/40/40 7/41/41
f 6/42/42 4/43/43 2/1/1
f 3/33/33 5/40/40 6/42/42
f 8/35/35 12/44/44 14/45/45
f 13/46/46 11/47/47 9/13/13
f 10/36/36 12/44/44 13/46/46
f 15/26/26 19/48/48 21/49/49
f 20/50/50 18/51/51 16/10/10
f 17/37/37 19/48/48 20/50/50
f 22/24/24 26/52/52 28/53/53
f 23/54/54 26/52/52 25/55/55
f 28/53/53 27/56/56 24/4/4
f 29/30/30 33/57/57 35/58/58
f 30/59/59 33/57/57 32/60/60
f 35/58/58 34/61/61 31/3/3
f 36/32/32 40/62/62 42/63/63
f 41/64/64 39/65/65 37/11/11
f 38/34/34 40/62/62 41/64/64
f 43/25/25 47/66/66 49/67/67
f 44/68/68 47/66/66 46/69/69
f 49/67/67 48/70/70 45/8/8
f 50/31/31 54/71/71 56/72/72
f 51/73/73 54/71/71 53/74/74
f 56/72/72 55/75/75 52/6/6
f 57/28/28 61/76/76 63/77/77
f 58/20/20 61/78/76 60/79/78
f 59/39/39 61/80/76 62/81/79
f 64/5/5 68/82/80 70/83/81
f 65/22/22 68/84/80 67/85/82
f 66/29/29 68/86/80 69/87/83
f 71/19/19 75/88/84 77/89/85
f 72/17/17 75/88/84 74/90/86
f 73/12/12 75/88/84 76/91/87
f 78/92/88 82/93/89 84/94/90
f 79/95/91 82/93/89 81/96/92
f 80/15/15 82/93/89 83/97/93
f 85/27/27 89/98/94 91/99/95
f 86/100/96 89/101/94 88/102/97
f 87/7/7 89/103/94 90/104/98
f 92/105/99 96/106/100 98/107/101
f 93/9/9 96/106/100 95/108/102
f 94/21/21 96/106/100 97/109/103
f 99/16/16 103/110/104 105/111/105
f 100/23/23 103/110/104 102/112/106
f 101/14/14 103/110/104 104/113/107
f 106/18/18 110/114/108 112/115/109
f 107/116/110 110/117/108 109/118/111
f 108/2/2 110/119/108 111/120/112
f 50/31/31 39/65/65 36/32/32
f 56/72/72 37/11/11 39/65/65
f 38/34/34 11/47/47 8/35/35
f 41/64/64 9/13/13 11/47/47
f 43/25/25 18/51/51 15/26/26
f 49/67/67 16/10/10 18/51/51
f 17/37/37 4/43/43 1/38/38
f 20/50/50 2/1/1 4/43/43
f 22/24/24 55/75/75 51/73/73
f 28/53/53 52/6/6 55/75/75
f 29/30/30 48/70/70 44/68/68
f 35/58/58 45/8/8 48/70/70
f 3/33/33 34/61/61 30/59/59
f 6/42/42 31/3/3 34/61/61
f 10/36/36 27/56/56 23/54/54
f 13/46/46 24/4/4 27/56/56
f 64/5/5 63/121/77 59/39/39
f 70/122/81 57/28/28 63/77/77
f 59/39/39 77/123/85 73/12/12
f 62/124/79 71/19/19 77/89/85
f 72/17/17 84/94/90 80/15/15
f 74/90/86 78/92/88 84/94/90
f 86/100/96 69/125/83 65/22/22
f 69/87/83 85/27/27 66/29/29
f 100/23/23 98/107/101 94/21/21
f 102/112/106 92/105/99 98/107/101
f 58/20/20 109/118/111 106/18/18
f 60/79/78 107/116/110 109/118/111
f 87/7/7 97/126/103 93/9/9
f 90/127/98 94/21/21 97/109/103
f 93/9/9 83/97/93 79/95/91
f 95/128/102 80/15/15 83/97/93
f 101/14/14 67/129/82 64/5/5
f 67/85/82 100/23/23 65/22/22
f 108/2/2 91/130/95 87/7/7
f 111/131/112 85/27/27 91/99/95
f 79/95/91 112/132/109 108/2/2
f 81/96/92 106/18/18 112/115/109
f 73/12/12 105/111/105 101/14/14
f 76/133/87 99/16/16 105/111/105
f 23/54/54 21/49/49 17/37/37
f 25/55/55 15/26/26 21/49/49
f 51/73/73 46/69/69 43/25/25
f 53/74/74 44/68/68 46/69/69
f 8/35/35 7/41/41 3/33/33
f 14/45/45 1/38/38 7/41/41
f 30/59/59 42/63/63 38/34/34
f 32/60/60 36/32/32 42/63/63
f 16/10/10 79/95/91 2/1/1
f 2/1/1 79/95/91 108/2/2
f 24/4/4 101/14/14 64/5/5
f 31/3/3 108/2/2 87/7/7
f 45/8/8 87/7/7 93/9/9
f 37/11/11 59/39/39 73/12/12
f 9/13/13 73/12/12 101/14/14
f 80/15/15 92/105/99 99/16/16
f 106/18/18 78/92/88 71/19/19
f 94/21/21 86/100/96 65/22/22
f 22/24/24 51/73/73 43/25/25
f 85/27/27 107/116/110 57/28/28
f 29/30/30 44/68/68 50/31/31
f 3/33/33 30/59/59 38/34/34
f 10/36/36 23/54/54 17/37/37
f 52/6/6 64/5/5 59/39/39
f 1/38/38 4/43/43 5/40/40
f 6/42/42 5/40/40 4/43/43
f 3/33/33 7/41/41 5/40/40
f 8/35/35 11/47/47 12/44/44
f 13/46/46 12/44/44 11/47/47
f 10/36/36 14/45/45 12/44/44
f 15/26/26 18/51/51 19/48/48
f 20/50/50 19/48/48 18/51/51
f 17/37/37 21/49/49 19/48/48
f 22/24/24 25/55/55 26/52/52
f 23/54/54 27/56/56 26/52/52
f 28/53/53 26/52/52 27/56/56
f 29/30/30 32/60/60 33/57/57
f 30/59/59 34/61/61 33/57/57
f 35/58/58 33/57/57 34/61/61
f 36/32/32 39/65/65 40/62/62
f 41/64/64 40/62/62 39/65/65
f 38/34/34 42/63/63 40/62/62
f 43/25/25 46/69/69 47/66/66
f 44/68/68 48/70/70 47/66/66
f 49/67/67 47/66/66 48/70/70
f 50/31/31 53/74/74 54/71/71
f 51/73/73 55/75/75 54/71/71
f 56/72/72 54/71/71 55/75/75
f 57/28/28 60/79/78 61/76/76
f 58/20/20 62/124/79 61/78/76
f 59/39/39 63/121/77 61/80/76
f 64/5/5 67/129/82 68/82/80
f 65/22/22 69/125/83 68/84/80
f 66/29/29 70/122/81 68/86/80
f 71/19/19 74/90/86 75/88/84
f 72/17/17 76/133/87 75/88/84
f 73/12/12 77/123/85 75/88/84
f 78/92/88 81/96/92 82/93/89
f 79/95/91 83/97/93 82/93/89
f 80/15/15 84/94/90 82/93/89
f 85/27/27 88/134/97 89/98/94
f 86/100/96 90/127/98 89/101/94
f 87/7/7 91/130/95 89/103/94
f 92/105/99 95/128/102 96/106/100
f 93/9/9 97/126/103 96/106/100
f 94/21/21 98/107/101 96/106/100
f 99/16/16 102/112/106 103/110/104
f 100/23/23 104/113/107 103/110/104
f 101/14/14 105/111/105 103/110/104
f 106/18/18 109/118/111 110/114/108
f 107/116/110 111/131/112 110/117/108
f 108/2/2 112/132/109 110/119/108
f 50/31/31 56/72/72 39/65/65
f 56/72/72 52/6/6 37/11/11
f 38/34/34 41/64/64 11/47/47
f 41/64/64 37/11/11 9/13/13
f 43/25/25 49/67/67 18/51/51
f 49/67/67 45/8/8 16/10/10
f 17/37/37 20/50/50 4/43/43
f 20/50/50 16/10/10 2/1/1
f 22/24/24 28/53/53 55/75/75
f 28/53/53 24/4/4 52/6/6
f 29/30/30 35/58/58 48/70/70
f 35/58/58 31/3/3 45/8/8
f 3/33/33 6/42/42 34/61/61
f 6/42/42 2/1/1 31/3/3
f 10/36/36 13/46/46 27/56/56
f 13/46/46 9/13/13 24/4/4
f 64/5/5 70/135/81 63/121/77
f 70/122/81 66/29/29 57/28/28
f 59/39/39 62/136/79 77/123/85
f 62/124/79 58/20/20 71/19/19
f 72/17/17 74/90/86 84/94/90
f 74/90/86 71/19/19 78/92/88
f 86/100/96 88/102/97 69/125/83
f 69/87/83 88/134/97 85/27/27
f 100/23/23 102/112/106 98/107/101
f 102/112/106 99/16/16 92/105/99
f 58/20/20 60/79/78 109/118/111
f 60/79/78 57/28/28 107/116/110
f 87/7/7 90/137/98 97/126/103
f 90/127/98 86/100/96 94/21/21
f 93/9/9 95/128/102 83/97/93
f 95/128/102 92/105/99 80/15/15
f 101/14/14 104/138/107 67/129/82
f 67/85/82 104/113/107 100/23/23
f 108/2/2 111/139/112 91/130/95
f 111/131/112 107/116/110 85/27/27
f 79/95/91 81/140/92 112/132/109
f 81/96/92 78/92/88 106/18/18
f 73/12/12 76/133/87 105/111/105
f 76/133/87 72/17/17 99/16/16
f 23/54/54 25/55/55 21/49/49
f 25/55/55 22/24/24 15/26/26
f 51/73/73 53/74/74 46/69/69
f 53/74/74 50/31/31 44/68/68
f 8/35/35 14/45/45 7/41/41
f 14/45/45 10/36/36 1/38/38
f 30/59/59 32/60/60 42/63/63
f 32/60/60 29/30/30 36/32/32
f 16/10/10 93/9/9 79/95/91
